<svg width="21" height="20" viewBox="0 0 21 20" fill="none" xmlns="http://www.w3.org/2000/svg">
<path fill-rule="evenodd" clip-rule="evenodd" d="M11.0877 3.92114C10.7631 3.59652 10.2368 3.59652 9.91216 3.92114V3.92114C9.58775 4.24554 9.58751 4.77144 9.91163 5.09614L13.9749 9.16671H4.66659C4.20635 9.16671 3.83325 9.5398 3.83325 10V10C3.83325 10.4603 4.20635 10.8334 4.66659 10.8334H13.9749L9.91163 14.9039C9.58751 15.2286 9.58775 15.7545 9.91216 16.0789V16.0789C10.2368 16.4036 10.7631 16.4036 11.0877 16.0789L17.1666 10L11.0877 3.92114Z" fill="black" fill-opacity="0.7"/>
<mask id="mask0_1_243568" style="mask-type:luminance" maskUnits="userSpaceOnUse" x="3" y="3" width="15" height="14">
<path fill-rule="evenodd" clip-rule="evenodd" d="M11.0877 3.92114C10.7631 3.59652 10.2368 3.59652 9.91216 3.92114V3.92114C9.58775 4.24554 9.58751 4.77144 9.91163 5.09614L13.9749 9.16671H4.66659C4.20635 9.16671 3.83325 9.5398 3.83325 10V10C3.83325 10.4603 4.20635 10.8334 4.66659 10.8334H13.9749L9.91163 14.9039C9.58751 15.2286 9.58775 15.7545 9.91216 16.0789V16.0789C10.2368 16.4036 10.7631 16.4036 11.0877 16.0789L17.1666 10L11.0877 3.92114Z" fill="white"/>
</mask>
<g mask="url(#mask0_1_243568)">
<rect x="0.5" width="20" height="20" fill="#424B5A"/>
</g>
</svg>
