<?xml version="1.0" standalone="no"?>
<!DOCTYPE svg PUBLIC "-//W3C//DTD SVG 20010904//EN"
 "http://www.w3.org/TR/2001/REC-SVG-20010904/DTD/svg10.dtd">
<svg version="1.0" xmlns="http://www.w3.org/2000/svg"
 width="576.000000pt" height="576.000000pt" viewBox="0 0 576.000000 576.000000"
 preserveAspectRatio="xMidYMid meet">
<metadata>
Created by potrace 1.14, written by Peter Selinger 2001-2017
</metadata>
<g transform="translate(0.000000,576.000000) scale(0.100000,-0.100000)"
fill="#000000" stroke="none">
<path d="M2768 5635 c-2 -2 -39 -6 -83 -9 -90 -6 -178 -15 -215 -22 -14 -2
-54 -9 -90 -15 -117 -19 -339 -75 -395 -99 -11 -5 -40 -16 -65 -24 -25 -8 -62
-22 -84 -31 -21 -9 -41 -14 -44 -11 -3 3 -12 0 -20 -6 -8 -7 -20 -13 -28 -14
-8 -1 -62 -27 -122 -57 -148 -75 -176 -91 -180 -99 -2 -5 -10 -8 -18 -8 -8 0
-14 -4 -14 -10 0 -5 -7 -10 -15 -10 -7 0 -18 -6 -22 -14 -4 -8 -46 -40 -93
-71 -47 -32 -86 -62 -88 -66 -2 -5 -8 -9 -13 -9 -6 0 -21 -10 -34 -22 -13 -13
-39 -35 -57 -50 -63 -51 -84 -70 -163 -147 -123 -120 -245 -260 -245 -280 0
-6 -7 -11 -15 -11 -8 0 -27 -19 -42 -42 -16 -23 -34 -49 -41 -58 -25 -29 -82
-120 -82 -130 0 -5 -4 -10 -10 -10 -5 0 -10 -7 -10 -15 0 -8 -5 -15 -11 -15
-6 0 -9 -6 -6 -13 3 -7 -4 -19 -14 -26 -11 -6 -17 -16 -14 -21 3 -5 1 -11 -4
-14 -19 -12 -176 -353 -186 -404 -2 -11 -9 -30 -15 -41 -6 -12 -7 -21 -3 -21
4 0 2 -5 -5 -12 -7 -7 -12 -21 -12 -33 0 -12 -4 -25 -9 -30 -4 -6 -14 -32 -21
-60 -6 -27 -14 -57 -16 -65 -15 -62 -25 -105 -30 -136 -3 -20 -8 -46 -10 -58
-3 -11 -7 -39 -10 -61 -2 -22 -7 -56 -10 -75 -3 -19 -8 -51 -10 -70 -11 -78
-11 -475 0 -482 8 -5 7 -8 -2 -8 -7 0 -11 -4 -8 -9 4 -5 8 -33 11 -63 8 -98
27 -203 37 -216 7 -8 7 -12 0 -12 -7 0 -8 -10 -1 -32 11 -37 18 -63 24 -93 2
-11 9 -40 15 -65 6 -25 14 -57 17 -73 3 -15 8 -27 12 -27 4 0 8 -11 9 -24 2
-30 37 -131 60 -171 9 -16 16 -32 15 -35 -1 -12 11 -42 72 -175 21 -44 41 -82
45 -85 4 -3 13 -22 21 -42 7 -21 17 -38 21 -38 4 0 8 -5 8 -11 0 -17 182 -288
219 -327 17 -17 29 -32 27 -32 -15 0 324 -345 389 -396 28 -21 52 -41 55 -44
13 -14 137 -103 150 -108 8 -3 20 -12 25 -19 20 -25 345 -210 385 -219 3 0 31
-13 63 -27 32 -15 61 -27 66 -27 5 0 22 -7 37 -15 16 -8 36 -15 45 -15 8 0 20
-5 27 -12 7 -7 12 -8 12 -4 0 5 6 4 13 -2 7 -6 31 -16 52 -21 22 -6 65 -17 95
-26 80 -23 86 -25 205 -50 44 -9 96 -18 115 -21 19 -2 51 -6 70 -9 72 -11 123
-15 228 -21 59 -3 112 -5 117 -6 76 -4 379 21 453 38 13 3 43 7 65 10 50 7
253 54 287 67 8 3 57 19 109 37 205 68 428 176 614 297 66 43 216 153 243 178
7 5 31 26 55 45 52 42 227 215 288 285 57 65 198 255 241 325 19 30 37 57 40
60 3 3 14 23 25 45 11 22 22 42 26 45 8 7 123 248 139 290 7 19 18 49 25 65
45 105 120 371 139 499 4 21 8 48 11 60 34 160 39 600 10 801 -22 152 -52 289
-92 425 -28 98 -110 315 -129 345 -7 11 -14 25 -15 30 -3 18 -34 80 -42 86 -5
3 -7 8 -5 11 1 2 -21 47 -51 99 -30 52 -61 106 -68 122 -8 15 -19 27 -24 27
-5 0 -9 4 -9 10 0 14 -102 159 -142 202 -10 10 -15 18 -12 18 3 0 -4 9 -17 20
-13 10 -21 19 -18 20 20 1 -329 347 -377 373 -11 6 -23 16 -29 23 -5 7 -41 35
-80 63 -38 28 -75 55 -82 61 -7 5 -15 10 -19 10 -4 0 -21 11 -38 24 -44 33
-246 147 -246 138 0 -4 -4 -2 -8 3 -6 9 -55 36 -72 40 -3 0 -32 14 -65 29 -33
16 -64 29 -70 31 -5 1 -27 9 -47 19 -21 9 -43 16 -51 16 -7 0 -17 4 -22 8 -9
7 -33 16 -113 38 -7 2 -16 4 -20 5 -4 1 -18 6 -32 11 -14 5 -34 12 -45 14 -23
4 -36 8 -120 28 -33 8 -76 17 -95 19 -19 3 -44 8 -55 10 -20 5 -98 14 -185 23
-59 6 -347 13 -352 9z"/>
</g>
</svg>
